<?xml version="1.0" encoding="utf-8"?>
<!-- Svg Vector Icons : http://www.onlinewebfonts.com/icon -->
<!DOCTYPE svg PUBLIC "-//W3C//DTD SVG 1.1//EN" "http://www.w3.org/Graphics/SVG/1.1/DTD/svg11.dtd">
<svg version="1.1" xmlns="http://www.w3.org/2000/svg" xmlns:xlink="http://www.w3.org/1999/xlink" x="0px" y="0px" viewBox="0 0 256 256" enable-background="new 0 0 256 256" xml:space="preserve">
<metadata> Svg Vector Icons : http://www.onlinewebfonts.com/icon </metadata>
<g><g><path fill="#ffffff" d="M241.7,88.1l-73.8-73.8c-3.7-3.7-9-5.1-14-3.9c-2.6,0.6-5,2-6.9,3.9c-1.7,1.7-2.9,3.8-3.7,6.1c-3.3,10.8-9.1,20.3-17.6,28.8c-11.4,11.4-26.3,20.1-42,29.2c-16.7,9.7-34,19.7-48.1,33.8c-12,12-20.2,25.4-25,40.9c-1.6,5.2-0.2,10.9,3.7,14.8L88,241.7c3.7,3.7,9,5.1,14,3.9c2.6-0.7,5-2,6.9-3.9c1.7-1.7,2.9-3.8,3.7-6.1c3.3-10.8,9.1-20.3,17.7-28.8c11.4-11.4,26.3-20,42-29.2c16.7-9.7,33.9-19.7,48.1-33.9c12-12,20.2-25.4,25-40.9C247,97.6,245.5,91.9,241.7,88.1L241.7,88.1z M98.5,231.2c-24.4-24.4-49.3-49.3-73.7-73.7C45.7,89.7,136.6,92.6,157.5,24.8c24.4,24.4,49.3,49.3,73.8,73.7C210.3,166.3,119.5,163.4,98.5,231.2L98.5,231.2z M154.3,119.9c-2.4-2-4.8-3.4-7.2-4.1c-2.4-0.7-4.8-1-7.3-0.8c-2.4,0.2-4.9,0.7-7.4,1.7c-2.5,1-5,2-7.5,3.2c-3.9-4.6-7.9-9.1-11.9-13.2c1.8-1.6,3.5-2.4,5.2-2.5c1.7-0.1,3.3,0.1,4.8,0.5c1.6,0.4,3,0.7,4.3,1c1.3,0.3,2.5,0,3.5-0.9c1.1-0.9,1.7-2.1,1.7-3.6s-0.5-2.9-1.7-4.2c-1.6-1.8-3.4-2.9-5.7-3.3c-2.2-0.4-4.5-0.4-6.9,0.1c-2.3,0.5-4.6,1.4-6.6,2.6c-2.1,1.2-3.8,2.5-5,3.8c-0.5-0.5-1-0.9-1.4-1.3c-0.5-0.5-1.2-0.7-2-0.7c-0.8,0-1.5,0.3-2,1c-0.5,0.6-0.8,1.3-0.7,2.1c0.1,0.8,0.4,1.4,0.9,1.9c0.5,0.4,1,0.8,1.4,1.2c-1.9,2.3-3.4,4.8-4.7,7.4c-1.2,2.7-2,5.3-2.2,7.8c-0.3,2.6,0,4.9,0.8,7.1c0.8,2.2,2.2,4.1,4.4,5.9c3.5,2.9,7.6,4.1,12.3,3.8c4.7-0.3,9.8-1.7,15.3-4.6c4.4,5,8.7,10,13.1,14.7c-1.9,1.6-3.5,2.5-4.9,2.7c-1.4,0.3-2.7,0.3-3.9-0.1c-1.2-0.4-2.2-0.9-3.2-1.5c-1-0.7-2-1.3-2.9-1.7c-1-0.5-1.9-0.7-2.9-0.7c-1,0-2.1,0.5-3.3,1.5c-1.2,1.1-1.8,2.3-1.8,3.7c0,1.4,0.6,2.8,1.9,4.2c1.3,1.4,2.9,2.6,4.9,3.5c2,0.9,4.2,1.5,6.6,1.7c2.5,0.2,5-0.2,7.8-1.2c2.7-1,5.4-2.8,8.1-5.5c1.3,1.3,2.6,2.5,3.9,3.6c0.6,0.5,1.2,0.7,2,0.6c0.8,0,1.4-0.4,2-1c0.6-0.7,0.8-1.4,0.7-2.2c-0.1-0.8-0.4-1.4-0.9-1.8c-1.3-1-2.6-2.1-3.9-3.3c2.2-2.7,4-5.6,5.3-8.4c1.3-2.8,2.1-5.6,2.3-8.1c0.3-2.6,0-4.8-0.9-6.9C157.9,123.5,156.4,121.7,154.3,119.9L154.3,119.9z M113.1,124.9c-2.1,0.1-3.9-0.6-5.5-2.1c-0.7-0.7-1.2-1.4-1.4-2.4c-0.3-0.9-0.4-2-0.3-3.1c0.1-1.1,0.4-2.3,1-3.4c0.6-1.2,1.3-2.3,2.4-3.5c3.7,3.7,7.5,7.8,11.2,12C117.6,124,115.1,124.8,113.1,124.9z M147.8,139.7c-0.7,1.2-1.4,2.3-2.3,3.3c-4.1-4.2-8.3-8.8-12.4-13.5c1.1-0.5,2.2-1,3.3-1.5c1.2-0.5,2.4-0.8,3.6-1c1.2-0.2,2.4-0.1,3.6,0.1c1.2,0.3,2.3,1,3.4,2c1,1,1.7,2.1,2,3.3c0.3,1.2,0.3,2.4,0.1,3.6C148.9,137.2,148.5,138.4,147.8,139.7z M118.6,173.6c1.4-1.2,3.6-1.1,4.9,0.2c1.4,1.4,1.4,3.8,0,5.2c-0.1,0.1-0.2,0.2-0.4,0.3l0,0c-4.7,3.5-8.5,6.7-12.6,10.9c-3.7,3.7-7.1,7.7-10,11.7l-4.7,6.5c-0.1,0.3-0.3,0.5-0.6,0.7c-1.4,1.4-3.8,1.4-5.2,0c-1.3-1.3-1.4-3.2-0.5-4.6l0,0l5-6.9c3.2-4.3,6.8-8.5,10.8-12.5C109.4,180.8,113.9,177.1,118.6,173.6L118.6,173.6z M145.5,66.9c3.7-3.7,7.1-7.7,10-11.7l4.9-6.7c0.2-0.3,0.4-0.6,0.6-0.9c1.4-1.4,3.8-1.4,5.3,0c1.4,1.4,1.4,3.6,0.2,5l0,0l-5,6.9c-3.2,4.3-6.8,8.5-10.8,12.5c-4.2,4.2-8.7,7.9-13.3,11.5l0,0c-1.5,1.3-3.8,1.3-5.2-0.1c-1.4-1.4-1.4-3.8,0-5.3c0.3-0.3,0.6-0.5,0.9-0.6C137.5,74.2,141.7,70.8,145.5,66.9L145.5,66.9z"/></g></g>
</svg>